<?xml version="1.0" standalone="no"?>
<!DOCTYPE svg PUBLIC "-//W3C//DTD SVG 20010904//EN"
 "http://www.w3.org/TR/2001/REC-SVG-20010904/DTD/svg10.dtd">
<svg version="1.0" xmlns="http://www.w3.org/2000/svg"
 width="1280.000000pt" height="1280.000000pt" viewBox="0 0 1280.000000 1280.000000"
 preserveAspectRatio="xMidYMid meet">
<metadata>
Created by potrace 1.16, written by Peter Selinger 2001-2019
</metadata>
<g transform="translate(0.000000,1280.000000) scale(0.100000,-0.100000)"
fill="#000000" stroke="none">
<path d="M5535 9159 c-699 -36 -1337 -150 -1798 -321 -59 -23 -106 -42 -104
-45 2 -2 17 1 33 7 46 18 316 86 475 119 299 64 611 110 999 148 233 23 1106
26 1310 5 376 -39 551 -62 790 -108 660 -125 1330 -361 1891 -665 249 -135
616 -367 768 -486 3 -2 -5 -16 -16 -31 -102 -138 -87 -283 42 -400 52 -48 123
-82 170 -82 11 0 112 -20 225 -45 183 -40 216 -51 328 -105 588 -284 1191
-832 1697 -1541 102 -143 277 -411 325 -496 13 -24 26 -41 28 -38 2 2 -23 56
-57 119 -259 490 -603 949 -1036 1381 -273 274 -512 478 -811 695 -86 62 -169
127 -185 144 -41 43 -55 99 -40 156 36 135 189 157 391 55 139 -70 220 -133
375 -290 98 -100 160 -154 179 -159 15 -4 30 -6 31 -4 9 9 -147 187 -251 288
-243 236 -560 468 -959 705 -418 247 -642 359 -970 485 -597 228 -1298 385
-2075 465 -439 45 -1316 67 -1755 44z m4673 -1413 c92 -48 126 -150 81 -243
-53 -110 -195 -133 -283 -46 -86 86 -68 219 38 284 37 23 124 26 164 5z"/>
<path d="M1635 8813 c-7 -60 -12 -89 -41 -208 -70 -300 -195 -402 -569 -466
-128 -22 -179 -39 -118 -39 41 0 262 -45 328 -66 209 -69 302 -177 359 -419
29 -119 34 -148 41 -207 4 -32 10 -58 14 -58 4 0 13 39 20 86 36 234 102 406
186 483 85 78 248 138 469 172 47 7 86 16 86 20 0 3 -24 9 -52 13 -252 32
-442 104 -527 201 -70 81 -130 249 -162 459 -7 47 -16 86 -20 86 -4 0 -10 -26
-14 -57z"/>
<path d="M100 7297 c0 -13 127 -250 198 -367 264 -441 657 -921 1057 -1290
261 -241 417 -369 697 -572 143 -103 176 -140 185 -207 7 -52 -26 -124 -67
-150 -109 -66 -307 -7 -523 156 -47 35 -135 117 -196 182 -103 110 -171 164
-187 148 -21 -20 205 -263 391 -422 435 -370 1141 -797 1677 -1014 706 -285
1618 -476 2533 -530 1153 -68 2032 -13 2774 174 142 36 423 124 476 150 35 17
40 18 -185 -39 -847 -216 -1840 -289 -2730 -201 -1115 112 -2128 464 -3020
1050 -134 88 -280 194 -280 204 0 4 9 16 19 25 34 31 64 116 64 181 -1 77 -33
143 -100 207 -63 58 -101 78 -172 88 -31 5 -96 18 -146 28 -49 11 -135 30
-190 42 -76 16 -133 38 -240 90 -686 337 -1381 1025 -1935 1915 -100 162 -100
161 -100 152z m2648 -2348 c168 -82 110 -339 -78 -339 -135 0 -217 132 -161
256 41 91 147 127 239 83z"/>
<path d="M2222 6357 l-132 -132 73 -73 72 -72 100 100 100 100 417 0 418 0 0
105 0 105 -458 0 -457 0 -133 -133z"/>
<path d="M3440 6335 l-155 -155 146 0 146 0 47 50 47 50 285 0 284 0 2 -267 3
-268 95 0 95 0 3 373 2 372 -422 0 -423 0 -155 -155z"/>
<path d="M4510 6222 l0 -267 103 -103 102 -102 380 0 380 0 105 105 105 105
-446 0 -445 0 -38 39 -37 38 1 227 1 226 -106 0 -105 0 0 -268z"/>
<path d="M5740 6250 l0 -240 431 0 432 0 158 157 159 157 0 83 0 83 -105 0
-105 0 0 -38 c0 -34 -8 -46 -93 -130 l-92 -92 -288 0 -287 0 0 130 0 130 -105
0 -105 0 0 -240z"/>
<path d="M6990 6390 l0 -100 443 0 442 0 100 100 100 100 -543 0 -542 0 0
-100z"/>
<path d="M8327 6382 l-107 -107 0 -133 0 -132 485 0 485 0 0 -28 c0 -22 23
-50 110 -137 l110 -110 0 248 0 247 -472 0 -472 0 29 30 29 30 443 0 443 0 0
100 0 100 -488 0 -487 0 -108 -108z"/>
<path d="M9450 6227 l0 -262 113 -113 113 -112 484 2 485 3 3 373 2 372 -600
0 -600 0 0 -263z m980 -107 l0 -160 -337 0 -338 1 -42 37 -43 38 0 122 0 122
380 0 380 0 0 -160z"/>
<path d="M8025 6350 l-130 -130 -427 0 -428 0 0 -235 0 -235 110 0 110 0 0
230 c0 127 4 230 8 230 4 0 50 -43 101 -95 l94 -95 256 0 256 0 98 98 97 97 0
133 c0 72 -3 132 -8 132 -4 0 -66 -58 -137 -130z"/>
<path d="M2371 6135 l-96 -94 150 -150 150 -150 345 2 345 2 3 103 3 102 -306
0 -306 0 -46 44 -47 43 94 97 93 96 -143 0 -143 0 -96 -95z"/>
<path d="M3547 6063 l-167 -167 0 -146 1 -145 197 203 197 203 117 -1 116 0
79 79 c43 43 91 92 107 110 l30 31 -255 0 -255 0 -167 -167z"/>
<path d="M6777 6093 l-137 -138 -450 -4 -450 -3 0 -99 0 -99 488 0 487 0 103
103 103 103 -3 137 -3 137 -138 -137z"/>
<path d="M8330 5845 l105 -105 377 0 378 0 0 105 0 105 -482 0 -483 0 105
-105z"/>
<path d="M5859 5384 c-32 -34 -35 -130 -5 -163 23 -26 67 -27 89 -3 50 56 21
192 -41 192 -10 0 -29 -12 -43 -26z"/>
<path d="M11516 4878 c-10 -63 -40 -124 -71 -144 -16 -10 -58 -26 -94 -34
l-66 -17 54 -12 c116 -25 145 -52 172 -160 l17 -66 11 45 c23 86 32 107 54
128 28 26 78 47 137 57 l45 8 -66 16 c-109 27 -137 54 -163 155 -9 32 -17 61
-20 63 -2 2 -6 -15 -10 -39z"/>
<path d="M9962 4277 c-31 -181 -100 -245 -296 -273 -53 -7 -47 -17 19 -28 95
-17 150 -41 196 -86 39 -39 49 -57 67 -126 12 -44 22 -90 22 -102 0 -46 17
-19 29 45 32 174 107 245 284 269 64 9 67 20 9 28 -73 11 -170 45 -203 73 -16
14 -38 42 -48 62 -19 36 -51 153 -51 184 0 8 -4 18 -8 21 -5 3 -14 -27 -20
-67z"/>
<path d="M11075 3925 c-19 -104 -47 -201 -72 -246 -46 -86 -106 -119 -277
-154 l-109 -22 92 -17 c124 -22 196 -51 247 -98 51 -47 78 -108 105 -236 11
-53 21 -98 23 -99 1 -1 9 38 19 86 44 235 105 297 336 343 l111 22 -108 21
c-234 48 -289 102 -337 335 -21 100 -23 103 -30 65z"/>
</g>
</svg>
